mtllib mtl.mtl

# Vertices

# ----- ----- ----- ----- ----- ----- ----- ----- ----- ----- #
# Vertex Positions: (x, y, z)
# ----- ----- ----- ----- ----- ----- ----- ----- ----- ----- #
# Top Left                  Green
v -0.5 0.0 -0.5         0.247 0.608 0.043

# Top Right                 Green
v  0.5 0.0 -0.5         0.247 0.608 0.043

# Bottom Left               Green
v -0.5 0.0 0.5         0.247 0.608 0.043

# Bottom Right              Green
v  0.5 0.0 0.5         0.247 0.608 0.043
# ----- ----- ----- ----- ----- ----- ----- ----- ----- ----- #

# ----- ----- ----- ----- ----- ----- ----- ----- ----- ----- #
# Tex Coords: (u, v)
# ----- ----- ----- ----- ----- ----- ----- ----- ----- ----- #
# Top left
vt 0.0 0.0

# Top Right
vt 1.0 0.0

# Bottom Left
vt 0.0 1.0

# Bottom Right
vt 1.0 1.0
# ----- ----- ----- ----- ----- ----- ----- ----- ----- ----- #

# ----- ----- ----- ----- ----- ----- ----- ----- ----- ----- #
# Vertex Normals: Unit direction vectors (x, y, z)
# ----- ----- ----- ----- ----- ----- ----- ----- ----- ----- #
# Y+
vn 0.0 1.0 0.0
# ----- ----- ----- ----- ----- ----- ----- ----- ----- ----- #



# Faces: One vertex = v/vt/vn

# ----- ----- ----- ----- ----- ----- ----- ----- ----- ----- #
usemtl Grass
f 1/1/1 3/3/1 2/2/1
f 2/2/1 3/3/1 4/4/1
# ----- ----- ----- ----- ----- ----- ----- ----- ----- ----- #